<svg width="106" height="100" viewBox="0 0 106 100" fill="none" xmlns="http://www.w3.org/2000/svg">
<g clip-path="url(#clip0)">
<rect width="106" height="99.8567" fill="white"/>
<circle cx="63.6391" cy="39.4568" r="13.5913" stroke="#0E336C" stroke-width="1.66001"/>
<circle cx="63.8625" cy="39.4289" r="10.3621" stroke="#0E336C" stroke-width="1.78272"/>
<path d="M32.6974 37.1815H30.5562V49.0297H32.6974V37.1815Z" stroke="#0E336C" stroke-width="0.0407855"/>
<path d="M34.2846 27.1343C33.9778 26.6224 34.1441 25.9587 34.656 25.6518V25.6518C35.168 25.345 35.8317 25.5113 36.1385 26.0232L52.0673 52.6003C52.3742 53.1123 52.2079 53.776 51.6959 54.0828V54.0828C51.184 54.3897 50.5203 54.2234 50.2134 53.7115L34.2846 27.1343Z" fill="#F2994A"/>
<path d="M30.3115 33.674H33.0849" stroke="#0E336C" stroke-width="0.0407855"/>
<path d="M32.9217 25.9247H30.3115V37.1815H32.9217V25.9247Z" fill="white" stroke="#0E336C" stroke-width="1.34036"/>
<path d="M32.6974 37.1815H30.5562V49.0297H32.6974V37.1815Z" stroke="#0E336C" stroke-width="1.34036"/>
<path d="M30.7166 50.3193H31.624H32.5315L31.624 54.0715L30.7166 50.3193Z" fill="#0E336C"/>
<path d="M31.624 50.3193H30.7166L31.624 54.0715M31.624 50.3193H32.5315L31.624 54.0715M31.624 50.3193V54.0715" stroke="#0E336C" stroke-width="1.34036"/>
<path d="M27.254 38.5911V28.8177H28.2434L27.254 38.5911Z" fill="#0E336C"/>
<path d="M29.5438 28.8177H28.2434M28.2434 28.8177H27.254V38.5911L28.2434 28.8177Z" stroke="#0E336C" stroke-width="1.34036"/>
<path d="M30.3256 31.5543H33.303" stroke="#0E336C" stroke-width="1.34036"/>
<rect x="41.2379" y="34.4856" width="2.69137" height="7.43764" rx="1.34568" transform="rotate(91.5007 41.2379 34.4856)" fill="#0E336C"/>
<rect x="30.2707" y="33.8371" width="2.69184" height="3.34441" fill="#0E336C"/>
<circle cx="31.8475" cy="22.2974" r="1.52187" fill="#0E336C" stroke="#0E336C" stroke-width="1.34036"/>
<line x1="19.4909" y1="54.3125" x2="79.8069" y2="54.0165" stroke="black" stroke-width="0.0558483"/>
<line x1="19.4909" y1="25.0618" x2="79.8042" y2="24.6426" stroke="#0E336C" stroke-width="0.0576358"/>
<path d="M11.557 71.4015V71.0637L13.1333 70.4203L17.7816 58.2124H18.039L22.43 70.8225L23.9098 71.0637V71.4015H19.181V71.0637L20.4999 70.8546L19.1327 67.0426H14.8543L13.5515 70.4203L14.9991 71.0637V71.4015H11.557ZM14.983 66.7049H19.0201L17.09 61.0432L14.983 66.7049ZM27.6168 71.5623C26.8555 71.5623 26.1853 71.3854 25.6063 71.0316C25.0272 70.667 24.5769 70.163 24.2552 69.5196C23.9335 68.8655 23.7727 68.1042 23.7727 67.2357C23.7727 66.3671 23.9335 65.6111 24.2552 64.9678C24.5769 64.3137 25.0272 63.8097 25.6063 63.4558C26.1853 63.102 26.8555 62.9251 27.6168 62.9251C28.2387 62.9251 28.7802 63.0913 29.2413 63.4237C29.7024 63.7454 30.067 64.1904 30.3351 64.7587V59.0166L29.2092 58.8557V58.5341H31.9435V70.919L33.0694 71.0798V71.4015H30.3351V69.7287C30.067 70.297 29.7024 70.7474 29.2413 71.0798C28.7802 71.4015 28.2387 71.5623 27.6168 71.5623ZM27.7777 71.1602C28.2495 71.1602 28.673 71.0262 29.0483 70.7581C29.4343 70.4793 29.7399 70.1147 29.9651 69.6644C30.201 69.2033 30.3243 68.7047 30.3351 68.1685V66.3189C30.3243 65.7827 30.201 65.2895 29.9651 64.8391C29.7399 64.378 29.4343 64.0134 29.0483 63.7454C28.673 63.4666 28.2495 63.3272 27.7777 63.3272C26.2872 63.3272 25.5419 64.3619 25.5419 66.4314V68.0399C25.5419 70.1201 26.2872 71.1602 27.7777 71.1602ZM36.4889 71.5623C35.8027 71.5623 35.2397 71.3854 34.8001 71.0316C34.3605 70.667 34.1406 70.1308 34.1406 69.4231C34.1406 68.4152 34.5642 67.7021 35.4113 67.2839C36.2584 66.855 37.2395 66.6405 38.3547 66.6405H39.4324V65.402C39.4324 64.8445 39.368 64.4155 39.2394 64.1153C39.1214 63.8043 38.9338 63.5899 38.6764 63.4719C38.4191 63.3433 38.0706 63.2789 37.6309 63.2789C37.127 63.2789 36.7517 63.3808 36.505 63.5845C36.2584 63.7775 36.1351 64.0402 36.1351 64.3727C36.1351 64.6836 36.2852 64.8873 36.5854 64.9839C36.5854 65.2519 36.4836 65.4878 36.2798 65.6916C36.0761 65.8953 35.8348 65.9972 35.5561 65.9972C35.2558 65.9972 35.0145 65.9167 34.8323 65.7559C34.65 65.5843 34.5588 65.327 34.5588 64.9839C34.5588 64.3619 34.8698 63.8633 35.4917 63.488C36.1136 63.1127 36.891 62.9251 37.8239 62.9251C39.9685 62.9251 41.0408 63.858 41.0408 65.7237V70.3238C41.0408 70.5597 41.0891 70.742 41.1856 70.8707C41.2928 70.9887 41.4429 71.0476 41.6359 71.0476C41.8182 71.0476 41.963 70.9887 42.0702 70.8707C42.1774 70.742 42.231 70.5705 42.231 70.356H42.5688C42.5688 70.7313 42.4455 71.0262 42.1989 71.2406C41.963 71.4551 41.6306 71.5623 41.2016 71.5623C40.7084 71.5623 40.2902 71.4229 39.9471 71.1441C39.6147 70.8546 39.4431 70.4096 39.4324 69.8091C39.175 70.356 38.7783 70.7849 38.2421 71.0959C37.7167 71.4069 37.1323 71.5623 36.4889 71.5623ZM37.3736 70.8546C37.6631 70.8546 37.958 70.7688 38.2582 70.5973C38.5692 70.4257 38.8319 70.1791 39.0463 69.8574C39.2608 69.525 39.3895 69.1282 39.4324 68.6672V66.9944H38.3547C37.4754 66.9944 36.816 67.1928 36.3764 67.5895C35.9474 67.9755 35.733 68.5224 35.733 69.2301C35.733 69.8199 35.8724 70.2381 36.1512 70.4847C36.43 70.7313 36.8374 70.8546 37.3736 70.8546ZM42.961 71.0798L44.0869 70.919V63.5524L42.961 63.3915V63.0698H45.6953V64.5496C46.0813 64.0456 46.5156 63.6489 46.9981 63.3593C47.4914 63.0698 48.0222 62.9251 48.5905 62.9251C49.2446 62.9251 49.7754 63.0698 50.1828 63.3593C50.601 63.6381 50.8637 64.0617 50.971 64.63C51.357 64.1046 51.7966 63.6917 52.2899 63.3915C52.7831 63.0805 53.3246 62.9251 53.9144 62.9251C54.6757 62.9251 55.2655 63.1181 55.6837 63.5041C56.1126 63.8794 56.327 64.4531 56.327 65.2251V70.919L57.4529 71.0798V71.4015H53.7536V71.0798L54.7186 70.919V65.2573C54.7186 64.689 54.6167 64.2547 54.413 63.9545C54.2093 63.6542 53.8769 63.5041 53.4158 63.5041C52.9761 63.5041 52.5472 63.6542 52.129 63.9545C51.7216 64.2547 51.3516 64.6407 51.0192 65.1125V70.919L51.9843 71.0798V71.4015H48.4296V71.0798L49.3947 70.919V65.2573C49.3947 64.689 49.2928 64.2547 49.0891 63.9545C48.8854 63.6542 48.553 63.5041 48.0919 63.5041C47.6522 63.5041 47.2233 63.6542 46.8051 63.9545C46.3977 64.2547 46.0277 64.6407 45.6953 65.1125V70.919L46.6604 71.0798V71.4015H42.961V71.0798ZM68.5277 71.7232C67.3589 71.7232 66.3135 71.439 65.3913 70.8707C64.4691 70.3024 63.7507 69.5089 63.236 68.4902C62.7213 67.4608 62.464 66.2867 62.464 64.9678C62.464 63.6489 62.7213 62.4801 63.236 61.4614C63.7507 60.432 64.4691 59.6331 65.3913 59.0648C66.3135 58.4965 67.3589 58.2124 68.5277 58.2124C69.6965 58.2124 70.742 58.4965 71.6642 59.0648C72.5863 59.6331 73.3048 60.432 73.8195 61.4614C74.3342 62.4801 74.5915 63.6489 74.5915 64.9678C74.5915 66.2867 74.3342 67.4608 73.8195 68.4902C73.3048 69.5089 72.5863 70.3024 71.6642 70.8707C70.742 71.439 69.6965 71.7232 68.5277 71.7232ZM68.5277 71.3532C69.2998 71.3532 69.9914 71.1495 70.6026 70.742C71.2245 70.3346 71.7124 69.7448 72.0663 68.9728C72.4201 68.19 72.5971 67.2678 72.5971 66.2063V63.7293C72.5971 62.6677 72.4201 61.7509 72.0663 60.9789C71.7124 60.1961 71.2245 59.601 70.6026 59.1935C69.9914 58.786 69.2998 58.5823 68.5277 58.5823C67.745 58.5823 67.048 58.786 66.4368 59.1935C65.8256 59.601 65.343 60.1961 64.9892 60.9789C64.6353 61.7509 64.4584 62.6677 64.4584 63.7293V66.2063C64.4584 67.2678 64.6353 68.19 64.9892 68.9728C65.343 69.7448 65.8256 70.3346 66.4368 70.742C67.048 71.1495 67.745 71.3532 68.5277 71.3532ZM75.8992 71.0798L77.0251 70.919V63.5524L75.8992 63.3915V63.0698H78.6336V64.3083C79.3091 63.3861 80.0704 62.9251 80.9175 62.9251C81.325 62.9251 81.6842 63.0323 81.9952 63.2468C82.3062 63.4505 82.4616 63.7454 82.4616 64.1314C82.4616 64.4102 82.3705 64.6461 82.1882 64.8391C82.0059 65.0214 81.7646 65.1125 81.4644 65.1125C81.1213 65.1125 80.8425 64.9785 80.628 64.7104C80.746 64.5603 80.8049 64.3995 80.8049 64.2279C80.8049 64.0456 80.7406 63.9008 80.6119 63.7936C80.494 63.6757 80.3331 63.6167 80.1294 63.6167C79.9042 63.6167 79.6737 63.7239 79.4378 63.9384C79.2019 64.1421 78.9338 64.4638 78.6336 64.9034V70.919L79.9203 71.0798V71.4015H75.8992V71.0798ZM83.0147 71.0798L84.1406 70.919V63.5524L83.0147 63.3915V63.0698H85.749V64.3083C86.4245 63.3861 87.1859 62.9251 88.033 62.9251C88.4404 62.9251 88.7996 63.0323 89.1106 63.2468C89.4216 63.4505 89.5771 63.7454 89.5771 64.1314C89.5771 64.4102 89.4859 64.6461 89.3036 64.8391C89.1213 65.0214 88.8801 65.1125 88.5798 65.1125C88.2367 65.1125 87.9579 64.9785 87.7434 64.7104C87.8614 64.5603 87.9204 64.3995 87.9204 64.2279C87.9204 64.0456 87.856 63.9008 87.7274 63.7936C87.6094 63.6757 87.4486 63.6167 87.2448 63.6167C87.0196 63.6167 86.7891 63.7239 86.5532 63.9384C86.3173 64.1421 86.0492 64.4638 85.749 64.9034V70.919L87.0357 71.0798V71.4015H83.0147V71.0798Z" fill="#0E336C"/>
<rect x="0.670179" y="0.670179" width="104.66" height="98.5163" stroke="#0E336C" stroke-width="1.34036"/>
</g>
<defs>
<clipPath id="clip0">
<rect width="106" height="99.8567" fill="white"/>
</clipPath>
</defs>
</svg>
