<svg width="1898" height="1788" viewBox="0 0 1898 1788" fill="none" xmlns="http://www.w3.org/2000/svg">
<rect width="1898" height="1788" fill="white"/>
<circle cx="1139.5" cy="706.5" r="243.362" stroke="#0E336C" stroke-width="29.7236"/>
<circle cx="1143.5" cy="706" r="185.54" stroke="#0E336C" stroke-width="31.9208"/>
<path d="M585.469 665.759H547.129V877.909H585.469V665.759Z" stroke="#0E336C" stroke-width="0.73029"/>
<path d="M613.888 485.858C608.394 476.691 611.371 464.807 620.538 459.313C629.705 453.819 641.589 456.796 647.083 465.963L932.299 941.843C937.793 951.01 934.816 962.895 925.649 968.389C916.483 973.883 904.598 970.905 899.104 961.739L613.888 485.858Z" fill="#F2994A"/>
<path d="M542.747 602.954H592.407" stroke="#0E336C" stroke-width="0.73029"/>
<path d="M589.486 464.199H542.747V665.759H589.486V464.199Z" fill="white" stroke="#0E336C" stroke-width="24"/>
<path d="M585.469 665.759H547.129V877.909H585.469V665.759Z" stroke="#0E336C" stroke-width="24"/>
<path d="M550 901H566.249H582.498L566.249 968.187L550 901Z" fill="#0E336C"/>
<path d="M566.249 901H550L566.249 968.187M566.249 901H582.498L566.249 968.187M566.249 901V968.187" stroke="#0E336C" stroke-width="24"/>
<path d="M488 691V516H505.716L488 691Z" fill="#0E336C"/>
<path d="M529 516H505.716M505.716 516H488V691L505.716 516Z" stroke="#0E336C" stroke-width="24"/>
<path d="M543 565H596.311" stroke="#0E336C" stroke-width="24"/>
<rect x="738.393" y="617.488" width="48.1907" height="133.176" rx="24.0953" transform="rotate(91.5007 738.393 617.488)" fill="#0E336C"/>
<rect x="542.017" y="605.875" width="48.1992" height="59.8838" fill="#0E336C"/>
<circle cx="570.25" cy="399.25" r="27.25" fill="#0E336C" stroke="#0E336C" stroke-width="24"/>
<line x1="348.998" y1="972.5" x2="1429" y2="967.201" stroke="black"/>
<line x1="348.998" y1="448.748" x2="1428.95" y2="441.241" stroke="#0E336C" stroke-width="1.03201"/>
<path d="M206.936 1278V1271.95L235.16 1260.43L318.392 1041.84H323L401.624 1267.63L428.12 1271.95V1278H343.448V1271.95L367.064 1268.21L342.584 1199.95H265.976L242.648 1260.43L268.568 1271.95V1278H206.936ZM268.28 1193.9H340.568L306.008 1092.53L268.28 1193.9ZM494.497 1280.88C480.865 1280.88 468.865 1277.71 458.497 1271.38C448.129 1264.85 440.065 1255.82 434.305 1244.3C428.545 1232.59 425.665 1218.96 425.665 1203.41C425.665 1187.86 428.545 1174.32 434.305 1162.8C440.065 1151.09 448.129 1142.06 458.497 1135.73C468.865 1129.39 480.865 1126.22 494.497 1126.22C505.633 1126.22 515.329 1129.2 523.585 1135.15C531.841 1140.91 538.369 1148.88 543.169 1159.06V1056.24L523.009 1053.36V1047.6H571.969V1269.36L592.129 1272.24V1278H543.169V1248.05C538.369 1258.22 531.841 1266.29 523.585 1272.24C515.329 1278 505.633 1280.88 494.497 1280.88ZM497.377 1273.68C505.825 1273.68 513.409 1271.28 520.129 1266.48C527.041 1261.49 532.513 1254.96 536.545 1246.9C540.769 1238.64 542.977 1229.71 543.169 1220.11V1186.99C542.977 1177.39 540.769 1168.56 536.545 1160.5C532.513 1152.24 527.041 1145.71 520.129 1140.91C513.409 1135.92 505.825 1133.42 497.377 1133.42C470.689 1133.42 457.345 1151.95 457.345 1189.01V1217.81C457.345 1255.06 470.689 1273.68 497.377 1273.68ZM653.359 1280.88C641.071 1280.88 630.991 1277.71 623.119 1271.38C615.247 1264.85 611.311 1255.25 611.311 1242.58C611.311 1224.53 618.895 1211.76 634.062 1204.27C649.231 1196.59 666.799 1192.75 686.767 1192.75H706.063V1170.58C706.063 1160.59 704.911 1152.91 702.607 1147.54C700.495 1141.97 697.135 1138.13 692.527 1136.02C687.919 1133.71 681.679 1132.56 673.807 1132.56C664.783 1132.56 658.063 1134.38 653.647 1138.03C649.231 1141.49 647.023 1146.19 647.023 1152.14C647.023 1157.71 649.711 1161.36 655.087 1163.09C655.087 1167.89 653.263 1172.11 649.615 1175.76C645.967 1179.41 641.647 1181.23 636.655 1181.23C631.279 1181.23 626.959 1179.79 623.695 1176.91C620.431 1173.84 618.799 1169.23 618.799 1163.09C618.799 1151.95 624.367 1143.02 635.503 1136.3C646.639 1129.58 660.559 1126.22 677.263 1126.22C715.663 1126.22 734.863 1142.93 734.863 1176.34V1258.7C734.863 1262.93 735.727 1266.19 737.455 1268.5C739.375 1270.61 742.063 1271.66 745.519 1271.66C748.783 1271.66 751.375 1270.61 753.295 1268.5C755.215 1266.19 756.175 1263.12 756.175 1259.28H762.223C762.223 1266 760.015 1271.28 755.599 1275.12C751.375 1278.96 745.423 1280.88 737.743 1280.88C728.911 1280.88 721.423 1278.38 715.279 1273.39C709.327 1268.21 706.255 1260.24 706.063 1249.49C701.455 1259.28 694.351 1266.96 684.751 1272.53C675.343 1278.1 664.879 1280.88 653.359 1280.88ZM669.199 1268.21C674.383 1268.21 679.663 1266.67 685.039 1263.6C690.607 1260.53 695.311 1256.11 699.151 1250.35C702.991 1244.4 705.295 1237.3 706.063 1229.04V1199.09H686.767C671.023 1199.09 659.215 1202.64 651.343 1209.74C643.663 1216.66 639.823 1226.45 639.823 1239.12C639.823 1249.68 642.319 1257.17 647.311 1261.58C652.303 1266 659.599 1268.21 669.199 1268.21ZM769.245 1272.24L789.405 1269.36V1137.46L769.245 1134.58V1128.82H818.205V1155.31C825.117 1146.29 832.893 1139.18 841.533 1134C850.365 1128.82 859.869 1126.22 870.045 1126.22C881.757 1126.22 891.261 1128.82 898.557 1134C906.045 1138.99 910.749 1146.58 912.669 1156.75C919.581 1147.34 927.453 1139.95 936.285 1134.58C945.117 1129.01 954.813 1126.22 965.373 1126.22C979.005 1126.22 989.565 1129.68 997.053 1136.59C1004.73 1143.31 1008.57 1153.58 1008.57 1167.41V1269.36L1028.73 1272.24V1278H962.493V1272.24L979.773 1269.36V1167.98C979.773 1157.81 977.949 1150.03 974.301 1144.66C970.653 1139.28 964.701 1136.59 956.445 1136.59C948.573 1136.59 940.893 1139.28 933.405 1144.66C926.109 1150.03 919.485 1156.94 913.533 1165.39V1269.36L930.813 1272.24V1278H867.165V1272.24L884.445 1269.36V1167.98C884.445 1157.81 882.621 1150.03 878.973 1144.66C875.325 1139.28 869.373 1136.59 861.117 1136.59C853.245 1136.59 845.565 1139.28 838.077 1144.66C830.781 1150.03 824.157 1156.94 818.205 1165.39V1269.36L835.485 1272.24V1278H769.245V1272.24ZM1227.03 1283.76C1206.11 1283.76 1187.39 1278.67 1170.87 1268.5C1154.36 1258.32 1141.5 1244.11 1132.28 1225.87C1123.07 1207.44 1118.46 1186.42 1118.46 1162.8C1118.46 1139.18 1123.07 1118.26 1132.28 1100.02C1141.5 1081.58 1154.36 1067.28 1170.87 1057.1C1187.39 1046.93 1206.11 1041.84 1227.03 1041.84C1247.96 1041.84 1266.68 1046.93 1283.19 1057.1C1299.71 1067.28 1312.57 1081.58 1321.79 1100.02C1331 1118.26 1335.61 1139.18 1335.61 1162.8C1335.61 1186.42 1331 1207.44 1321.79 1225.87C1312.57 1244.11 1299.71 1258.32 1283.19 1268.5C1266.68 1278.67 1247.96 1283.76 1227.03 1283.76ZM1227.03 1277.14C1240.86 1277.14 1253.24 1273.49 1264.19 1266.19C1275.32 1258.9 1284.06 1248.34 1290.39 1234.51C1296.73 1220.5 1299.9 1203.98 1299.9 1184.98V1140.62C1299.9 1121.62 1296.73 1105.2 1290.39 1091.38C1284.06 1077.36 1275.32 1066.7 1264.19 1059.41C1253.24 1052.11 1240.86 1048.46 1227.03 1048.46C1213.02 1048.46 1200.54 1052.11 1189.59 1059.41C1178.65 1066.7 1170.01 1077.36 1163.67 1091.38C1157.34 1105.2 1154.17 1121.62 1154.17 1140.62V1184.98C1154.17 1203.98 1157.34 1220.5 1163.67 1234.51C1170.01 1248.34 1178.65 1258.9 1189.59 1266.19C1200.54 1273.49 1213.02 1277.14 1227.03 1277.14ZM1359.03 1272.24L1379.19 1269.36V1137.46L1359.03 1134.58V1128.82L1407.99 1128.82V1150.99C1420.08 1134.48 1433.71 1126.22 1448.88 1126.22C1456.18 1126.22 1462.61 1128.14 1468.18 1131.98C1473.75 1135.63 1476.53 1140.91 1476.53 1147.82C1476.53 1152.82 1474.9 1157.04 1471.63 1160.5C1468.37 1163.76 1464.05 1165.39 1458.67 1165.39C1452.53 1165.39 1447.54 1162.99 1443.7 1158.19C1445.81 1155.5 1446.87 1152.62 1446.87 1149.55C1446.87 1146.29 1445.71 1143.7 1443.41 1141.78C1441.3 1139.66 1438.42 1138.61 1434.77 1138.61C1430.74 1138.61 1426.61 1140.53 1422.39 1144.37C1418.16 1148.02 1413.36 1153.78 1407.99 1161.65V1269.36L1431.03 1272.24V1278H1359.03V1272.24ZM1486.43 1272.24L1506.59 1269.36V1137.46L1486.43 1134.58V1128.82H1535.39V1150.99C1547.49 1134.48 1561.12 1126.22 1576.29 1126.22C1583.58 1126.22 1590.02 1128.14 1595.58 1131.98C1601.15 1135.63 1603.94 1140.91 1603.94 1147.82C1603.94 1152.82 1602.3 1157.04 1599.04 1160.5C1595.78 1163.76 1591.46 1165.39 1586.08 1165.39C1579.94 1165.39 1574.94 1162.99 1571.1 1158.19C1573.22 1155.5 1574.27 1152.62 1574.27 1149.55C1574.27 1146.29 1573.12 1143.7 1570.82 1141.78C1568.7 1139.66 1565.82 1138.61 1562.18 1138.61C1558.14 1138.61 1554.02 1140.53 1549.79 1144.37C1545.57 1148.02 1540.77 1153.78 1535.39 1161.65V1269.36L1558.43 1272.24V1278L1486.43 1278V1272.24Z" fill="#0E336C"/>
<rect x="12" y="12" width="1874" height="1764" stroke="#0E336C" stroke-width="24"/>
</svg>
