<svg width="75" height="71" viewBox="0 0 75 71" fill="none" xmlns="http://www.w3.org/2000/svg">
<g clip-path="url(#clip0_232_3)">
<rect width="75" height="70.6533" fill="white"/>
<circle cx="46.0277" cy="27.2178" r="9.61651" stroke="#0E336C" stroke-width="1.17454"/>
<circle cx="46.1857" cy="27.1981" r="7.33165" stroke="#0E336C" stroke-width="1.26136"/>
<path d="M24.135 25.608H22.6199V33.9911H24.135V25.608Z" stroke="#0E336C" stroke-width="0.0288576"/>
<path d="M25.258 18.4991C25.0409 18.1369 25.1586 17.6673 25.5208 17.4502V17.4502C25.883 17.2331 26.3526 17.3507 26.5697 17.713L37.8401 36.5175C38.0572 36.8797 37.9396 37.3494 37.5773 37.5665V37.5665C37.2151 37.7836 36.7455 37.6659 36.5284 37.3037L25.258 18.4991Z" fill="#F2994A"/>
<path d="M22.4468 23.1262H24.4091" stroke="#0E336C" stroke-width="0.0288576"/>
<path d="M24.2937 17.6432H22.4468V25.608H24.2937V17.6432Z" fill="white" stroke="#0E336C" stroke-width="0.948367"/>
<path d="M24.135 25.608H22.6199V33.9911H24.135V25.608Z" stroke="#0E336C" stroke-width="0.948367"/>
<path d="M22.7334 34.9036H23.3755H24.0176L23.3755 37.5585L22.7334 34.9036Z" fill="#0E336C"/>
<path d="M23.3755 34.9036H22.7334L23.3755 37.5585M23.3755 34.9036H24.0176L23.3755 37.5585M23.3755 34.9036V37.5585" stroke="#0E336C" stroke-width="0.948367"/>
<path d="M20.2835 26.6054V19.6902H20.9836L20.2835 26.6054Z" fill="#0E336C"/>
<path d="M21.9036 19.6902H20.9836M20.9836 19.6902H20.2835V26.6054L20.9836 19.6902Z" stroke="#0E336C" stroke-width="0.948367"/>
<path d="M22.4568 21.6264H24.5634" stroke="#0E336C" stroke-width="0.948367"/>
<rect x="30.1778" y="23.7005" width="1.90427" height="5.26248" rx="0.952134" transform="rotate(91.5007 30.1778 23.7005)" fill="#0E336C"/>
<rect x="22.418" y="23.2416" width="1.9046" height="2.36633" fill="#0E336C"/>
<circle cx="23.5336" cy="15.0768" r="1.07679" fill="#0E336C" stroke="#0E336C" stroke-width="0.948367"/>
<line x1="18" y1="37.2805" x2="57" y2="37.2805" stroke="black" stroke-width="0.0395153"/>
<line x1="18" y1="16.2799" x2="57" y2="16.2799" stroke="#0E336C" stroke-width="0.04078"/>
<path d="M9.68135 50V49.761L10.7966 49.3058L14.0856 40.6681H14.2677L17.3745 49.5903L18.4215 49.761V50H15.0757V49.761L16.0089 49.6131L15.0415 46.9159H12.0143L11.0925 49.3058L12.1168 49.761V50H9.68135ZM12.1054 46.6769H14.9619L13.5962 42.671L12.1054 46.6769ZM21.0444 50.1138C20.5057 50.1138 20.0316 49.9886 19.6219 49.7383C19.2122 49.4803 18.8935 49.1237 18.6659 48.6685C18.4383 48.2057 18.3245 47.667 18.3245 47.0525C18.3245 46.4379 18.4383 45.9031 18.6659 45.4478C18.8935 44.985 19.2122 44.6285 19.6219 44.3781C20.0316 44.1277 20.5057 44.0025 21.0444 44.0025C21.4845 44.0025 21.8676 44.1201 22.1938 44.3553C22.5201 44.5829 22.778 44.8978 22.9677 45.2999V41.2371L22.1711 41.1233V40.8957H24.1057V49.6586L24.9024 49.7724V50H22.9677V48.8164C22.778 49.2185 22.5201 49.5372 22.1938 49.7724C21.8676 50 21.4845 50.1138 21.0444 50.1138ZM21.1582 49.8293C21.492 49.8293 21.7917 49.7345 22.0573 49.5448C22.3304 49.3475 22.5466 49.0896 22.7059 48.7709C22.8729 48.4447 22.9601 48.0919 22.9677 47.7125V46.4038C22.9601 46.0244 22.8729 45.6754 22.7059 45.3568C22.5466 45.0306 22.3304 44.7726 22.0573 44.5829C21.7917 44.3857 21.492 44.287 21.1582 44.287C20.1036 44.287 19.5763 45.0192 19.5763 46.4835V47.6215C19.5763 49.0934 20.1036 49.8293 21.1582 49.8293ZM27.3219 50.1138C26.8363 50.1138 26.438 49.9886 26.1269 49.7383C25.8159 49.4803 25.6603 49.1009 25.6603 48.6002C25.6603 47.887 25.96 47.3825 26.5594 47.0866C27.1587 46.7831 27.8529 46.6314 28.642 46.6314H29.4045V45.7551C29.4045 45.3606 29.3589 45.0571 29.2679 44.8447C29.1844 44.6247 29.0517 44.4729 28.8696 44.3895C28.6875 44.2984 28.4409 44.2529 28.1299 44.2529C27.7733 44.2529 27.5077 44.325 27.3332 44.4691C27.1587 44.6057 27.0715 44.7916 27.0715 45.0268C27.0715 45.2468 27.1777 45.3909 27.3901 45.4592C27.3901 45.6489 27.3181 45.8158 27.1739 45.96C27.0298 46.1041 26.8591 46.1762 26.6618 46.1762C26.4494 46.1762 26.2787 46.1193 26.1497 46.0055C26.0207 45.8841 25.9562 45.702 25.9562 45.4592C25.9562 45.0192 26.1762 44.6664 26.6163 44.4008C27.0563 44.1353 27.6064 44.0025 28.2664 44.0025C29.7838 44.0025 30.5425 44.6626 30.5425 45.9827V49.2375C30.5425 49.4044 30.5767 49.5334 30.6449 49.6244C30.7208 49.7079 30.827 49.7496 30.9636 49.7496C31.0926 49.7496 31.195 49.7079 31.2709 49.6244C31.3467 49.5334 31.3847 49.412 31.3847 49.2603H31.6236C31.6236 49.5258 31.5364 49.7345 31.3619 49.8862C31.195 50.0379 30.9598 50.1138 30.6563 50.1138C30.3073 50.1138 30.0114 50.0152 29.7686 49.8179C29.5334 49.6131 29.4121 49.2982 29.4045 48.8733C29.2224 49.2603 28.9417 49.5638 28.5623 49.7838C28.1906 50.0038 27.7771 50.1138 27.3219 50.1138ZM27.9478 49.6131C28.1526 49.6131 28.3613 49.5524 28.5737 49.431C28.7937 49.3096 28.9796 49.1351 29.1313 48.9075C29.2831 48.6723 29.3741 48.3916 29.4045 48.0653V46.8818H28.642C28.0199 46.8818 27.5533 47.0221 27.2422 47.3028C26.9387 47.576 26.787 47.9629 26.787 48.4636C26.787 48.8809 26.8856 49.1768 27.0829 49.3513C27.2801 49.5258 27.5684 49.6131 27.9478 49.6131ZM31.9011 49.7724L32.6978 49.6586V44.4464L31.9011 44.3326V44.105H33.8358V45.1519C34.1089 44.7954 34.4162 44.5146 34.7576 44.3098C35.1066 44.105 35.4822 44.0025 35.8843 44.0025C36.3471 44.0025 36.7226 44.105 37.0109 44.3098C37.3068 44.5071 37.4927 44.8067 37.5686 45.2089C37.8417 44.8371 38.1528 44.545 38.5018 44.3326C38.8508 44.1125 39.2339 44.0025 39.6512 44.0025C40.1899 44.0025 40.6071 44.1391 40.903 44.4122C41.2065 44.6778 41.3582 45.0837 41.3582 45.6299V49.6586L42.1549 49.7724V50H39.5374V49.7724L40.2202 49.6586V45.6527C40.2202 45.2506 40.1481 44.9433 40.004 44.7309C39.8598 44.5184 39.6246 44.4122 39.2984 44.4122C38.9873 44.4122 38.6839 44.5184 38.388 44.7309C38.0997 44.9433 37.8379 45.2164 37.6027 45.5503V49.6586L38.2855 49.7724V50H35.7705V49.7724L36.4533 49.6586V45.6527C36.4533 45.2506 36.3812 44.9433 36.2371 44.7309C36.0929 44.5184 35.8577 44.4122 35.5315 44.4122C35.2204 44.4122 34.9169 44.5184 34.6211 44.7309C34.3327 44.9433 34.071 45.2164 33.8358 45.5503V49.6586L34.5186 49.7724V50H31.9011V49.7724ZM49.9908 50.2276C49.1638 50.2276 48.4241 50.0266 47.7716 49.6244C47.1192 49.2223 46.6108 48.6609 46.2467 47.9401C45.8825 47.2118 45.7004 46.381 45.7004 45.4478C45.7004 44.5146 45.8825 43.6877 46.2467 42.9669C46.6108 42.2386 47.1192 41.6733 47.7716 41.2712C48.4241 40.8691 49.1638 40.6681 49.9908 40.6681C50.8178 40.6681 51.5575 40.8691 52.21 41.2712C52.8625 41.6733 53.3708 42.2386 53.735 42.9669C54.0991 43.6877 54.2812 44.5146 54.2812 45.4478C54.2812 46.381 54.0991 47.2118 53.735 47.9401C53.3708 48.6609 52.8625 49.2223 52.21 49.6244C51.5575 50.0266 50.8178 50.2276 49.9908 50.2276ZM49.9908 49.9659C50.5371 49.9659 51.0264 49.8217 51.4589 49.5334C51.8989 49.2451 52.2441 48.8278 52.4945 48.2816C52.7449 47.7277 52.8701 47.0752 52.8701 46.3241V44.5715C52.8701 43.8204 52.7449 43.1718 52.4945 42.6255C52.2441 42.0717 51.8989 41.6506 51.4589 41.3623C51.0264 41.074 50.5371 40.9298 49.9908 40.9298C49.437 40.9298 48.9438 41.074 48.5114 41.3623C48.0789 41.6506 47.7375 42.0717 47.4871 42.6255C47.2368 43.1718 47.1116 43.8204 47.1116 44.5715V46.3241C47.1116 47.0752 47.2368 47.7277 47.4871 48.2816C47.7375 48.8278 48.0789 49.2451 48.5114 49.5334C48.9438 49.8217 49.437 49.9659 49.9908 49.9659ZM55.2065 49.7724L56.0031 49.6586V44.4464L55.2065 44.3326V44.105H57.1412V44.9812C57.6191 44.3288 58.1578 44.0025 58.7572 44.0025C59.0455 44.0025 59.2997 44.0784 59.5197 44.2301C59.7397 44.3743 59.8497 44.5829 59.8497 44.8561C59.8497 45.0533 59.7852 45.2202 59.6562 45.3568C59.5273 45.4858 59.3566 45.5503 59.1441 45.5503C58.9013 45.5503 58.7041 45.4554 58.5523 45.2658C58.6358 45.1595 58.6775 45.0457 58.6775 44.9243C58.6775 44.7954 58.632 44.6929 58.541 44.6171C58.4575 44.5336 58.3437 44.4919 58.1995 44.4919C58.0402 44.4919 57.8771 44.5678 57.7102 44.7195C57.5433 44.8636 57.3536 45.0913 57.1412 45.4023V49.6586L58.0516 49.7724V50H55.2065V49.7724ZM60.241 49.7724L61.0376 49.6586V44.4464L60.241 44.3326V44.105H62.1757V44.9812C62.6536 44.3288 63.1923 44.0025 63.7917 44.0025C64.08 44.0025 64.3341 44.0784 64.5542 44.2301C64.7742 44.3743 64.8842 44.5829 64.8842 44.8561C64.8842 45.0533 64.8197 45.2202 64.6907 45.3568C64.5618 45.4858 64.3911 45.5503 64.1786 45.5503C63.9358 45.5503 63.7386 45.4554 63.5868 45.2658C63.6703 45.1595 63.712 45.0457 63.712 44.9243C63.712 44.7954 63.6665 44.6929 63.5755 44.6171C63.492 44.5336 63.3782 44.4919 63.234 44.4919C63.0747 44.4919 62.9116 44.5678 62.7447 44.7195C62.5778 44.8636 62.3881 45.0913 62.1757 45.4023V49.6586L63.0861 49.7724V50H60.241V49.7724Z" fill="#0E336C"/>
<rect x="0.474183" y="0.474183" width="74.0516" height="69.7049" stroke="#0E336C" stroke-width="0.948367"/>
</g>
<defs>
<clipPath id="clip0_232_3">
<rect width="75" height="70.6533" fill="white"/>
</clipPath>
</defs>
</svg>
