<svg
  xmlns="http://www.w3.org/2000/svg"
  width="30"
  height="30"
  viewBox="0 0 25 25"
  fill="none"
  style=""
>
  <title>Adam's CodePen</title>
  <path
    d="M11.78 14.84c-.749-.505-1.502-1.004-2.25-1.51-.097-.067-.167-.072-.268 0l-1.899 1.276c1.524 1.014 4.551 3.037 4.551 3.037v-2.627c0-.06-.076-.136-.135-.175zm-2.254-3.088c.755-.497 1.505-.999 2.251-1.507a.367.367 0 00.137-.261V7.459S8.887 9.467 7.36 10.484c.67.447 1.303.874 1.943 1.29.05.033.166.015.223-.022zm3.65-1.53c.772.523 1.547 1.041 2.325 1.554a.21.21 0 00.188 0l1.94-1.293-4.543-3.038v2.605a.234.234 0 00.09.172zm-.573 1.027a.256.256 0 00-.231.008c-.236.146-.463.303-.692.456l-1.238.83 1.896 1.263a.3.3 0 00.306.006l1.904-1.27s-1.663-1.107-1.945-1.293zm-5.718.33v1.933l1.446-.969-1.446-.965z"
    fill="currentColor"
  ></path>
  <path
    d="M12.5 1.563C6.46 1.563 1.562 6.458 1.562 12.5c0 6.04 4.897 10.938 10.938 10.938 6.04 0 10.938-4.897 10.938-10.938 0-6.04-4.897-10.938-10.938-10.938zm6.787 12.939c0 .282-.13.481-.367.64a2312.953 2312.953 0 00-6.02 4.012c-.285.192-.545.183-.83-.006a1212.612 1212.612 0 00-5.987-3.988c-.25-.166-.371-.37-.371-.67v-3.894c0-.3.123-.505.372-.67C8.082 8.6 10.085 7.27 12.077 5.937c.284-.19.541-.195.827-.004 2.003 1.342 4.01 2.68 6.018 4.013.229.152.364.34.364.619l.001 3.937z"
    fill="currentColor"
  ></path>
  <path
    d="M15.442 13.341c-.736.5-1.474.994-2.216 1.482-.118.077-.142.161-.14.302v2.507l4.541-3.028-1.881-1.263c-.113-.079-.19-.077-.304 0zm2.624.169v-1.935l-1.444.97 1.444.965z"
    fill="currentColor"
  ></path>
</svg>