<svg 
  xmlns="http://www.w3.org/2000/svg"
  width="30"
  height="30"
  viewBox="0 0 25 25"
  fill="none"
  style=""
>
  <title>Adam's GitHub</title>
  <path
    d="M12.5 1.563c-6.04 0-10.938 5.024-10.938 11.215 0 4.956 3.135 9.156 7.481 10.64.06.013.123.02.186.02.405 0 .561-.298.561-.557 0-.269-.01-.972-.015-1.91a5 5 0 01-1.103.133c-2.105 0-2.583-1.636-2.583-1.636-.498-1.294-1.216-1.64-1.216-1.64-.952-.67-.005-.69.068-.69h.005c1.099.098 1.675 1.163 1.675 1.163.547.957 1.28 1.225 1.934 1.225a3.077 3.077 0 001.25-.293c.097-.722.38-1.215.693-1.499-2.427-.283-4.98-1.245-4.98-5.542 0-1.225.424-2.226 1.123-3.007-.113-.284-.489-1.426.107-2.97a.91.91 0 01.244-.024c.396 0 1.29.152 2.764 1.177a10.167 10.167 0 015.478 0c1.475-1.025 2.368-1.177 2.764-1.177a.91.91 0 01.244.025c.596 1.543.22 2.685.108 2.969.698.786 1.123 1.787 1.123 3.007 0 4.307-2.559 5.254-4.995 5.533.39.346.742 1.03.742 2.075 0 1.499-.015 2.71-.015 3.076 0 .264.151.561.557.561a.949.949 0 00.195-.019c4.35-1.484 7.48-5.688 7.48-10.64 0-6.191-4.897-11.216-10.937-11.216z"
    fill="currentColor"
  ></path>
</svg>