<svg
  xmlns="http://www.w3.org/2000/svg"
  width="30"
  height="30"
  viewBox="0 0 23 23"
  fill="none"
  style=""
>
  <title>Adam's Linkedin</title>
  <path
    d="M19.953 1.438H3.157c-.918 0-1.72.66-1.72 1.567v16.833c0 .912.802 1.724 1.72 1.724h16.791c.923 0 1.614-.818 1.614-1.724V3.005c.006-.907-.691-1.567-1.609-1.567zM7.676 18.212H4.793V9.249h2.883v8.964zM6.334 7.886h-.02c-.923 0-1.52-.687-1.52-1.547 0-.876.612-1.546 1.556-1.546.943 0 1.52.665 1.541 1.546 0 .86-.598 1.547-1.557 1.547zm11.879 10.327H15.33V13.31c0-1.174-.42-1.976-1.463-1.976-.797 0-1.269.539-1.478 1.064-.08.189-.1.446-.1.708v5.106H9.406V9.249h2.883v1.247c.42-.597 1.075-1.457 2.6-1.457 1.893 0 3.324 1.247 3.324 3.937v5.237z"
    fill="currentColor"
  ></path>
</svg>