<svg width="714" height="673" viewBox="0 0 714 673" fill="none" xmlns="http://www.w3.org/2000/svg">
<g clip-path="url(#clip0)">
<rect width="714" height="672.62" fill="white"/>
<circle cx="428.663" cy="265.775" r="91.5492" stroke="#0E336C" stroke-width="11.1816"/>
<circle cx="430.168" cy="265.587" r="69.7973" stroke="#0E336C" stroke-width="12.0081"/>
<path d="M220.245 250.449H205.822V330.256H220.245V250.449Z" stroke="#0E336C" stroke-width="0.274725"/>
<path d="M230.936 182.773C228.869 179.324 229.989 174.853 233.437 172.787V172.787C236.886 170.72 241.357 171.84 243.423 175.288L350.717 354.308C352.784 357.756 351.664 362.227 348.216 364.294V364.294C344.768 366.36 340.297 365.24 338.23 361.792L230.936 182.773Z" fill="#F2994A"/>
<path d="M204.174 226.823H222.855" stroke="#0E336C" stroke-width="0.274725"/>
<path d="M221.756 174.625H204.174V250.449H221.756V174.625Z" fill="white" stroke="#0E336C" stroke-width="9.02845"/>
<path d="M220.245 250.449H205.822V330.256H220.245V250.449Z" stroke="#0E336C" stroke-width="9.02845"/>
<path d="M206.902 338.943H213.015H219.127L213.015 364.218L206.902 338.943Z" fill="#0E336C"/>
<path d="M213.015 338.943H206.902L213.015 364.218M213.015 338.943H219.127L213.015 364.218M213.015 338.943V364.218" stroke="#0E336C" stroke-width="9.02845"/>
<path d="M183.578 259.944V194.112H190.243L183.578 259.944Z" fill="#0E336C"/>
<path d="M199.002 194.112H190.243M190.243 194.112H183.578V259.944L190.243 194.112Z" stroke="#0E336C" stroke-width="9.02845"/>
<path d="M204.269 212.545H224.324" stroke="#0E336C" stroke-width="9.02845"/>
<rect x="277.773" y="232.29" width="18.1286" height="50.0989" rx="9.06432" transform="rotate(91.5007 277.773 232.29)" fill="#0E336C"/>
<rect x="203.899" y="227.922" width="18.1318" height="22.5274" fill="#0E336C"/>
<circle cx="214.52" cy="150.192" r="10.2511" fill="#0E336C" stroke="#0E336C" stroke-width="9.02845"/>
<line x1="131.288" y1="365.84" x2="537.568" y2="363.847" stroke="black" stroke-width="0.376185"/>
<line x1="131.288" y1="168.813" x2="537.549" y2="165.988" stroke="#0E336C" stroke-width="0.388226"/>
<path d="M77.8463 481.176V478.901L88.4638 474.567L119.774 392.336H121.508L151.085 477.276L161.053 478.901V481.176H129.2V478.901L138.084 477.492L128.875 451.815H100.056L91.2807 474.567L101.031 478.901V481.176H77.8463ZM100.923 449.54H128.117L115.116 411.404L100.923 449.54ZM186.023 482.259C180.895 482.259 176.38 481.068 172.48 478.684C168.58 476.228 165.546 472.834 163.379 468.5C161.212 464.094 160.129 458.966 160.129 453.116C160.129 447.265 161.212 442.173 163.379 437.839C165.546 433.434 168.58 430.039 172.48 427.655C176.38 425.272 180.895 424.08 186.023 424.08C190.212 424.08 193.859 425.2 196.965 427.439C200.071 429.605 202.527 432.603 204.332 436.431V397.753L196.748 396.67V394.503H215.167V477.926L222.75 479.009V481.176H204.332V469.908C202.527 473.737 200.071 476.77 196.965 479.009C193.859 481.176 190.212 482.259 186.023 482.259ZM187.106 479.551C190.284 479.551 193.137 478.648 195.665 476.842C198.265 474.964 200.324 472.509 201.841 469.475C203.43 466.369 204.26 463.011 204.332 459.399V446.94C204.26 443.329 203.43 440.006 201.841 436.973C200.324 433.867 198.265 431.411 195.665 429.605C193.137 427.728 190.284 426.789 187.106 426.789C177.066 426.789 172.047 433.759 172.047 447.698V458.533C172.047 472.545 177.066 479.551 187.106 479.551ZM245.784 482.259C241.161 482.259 237.369 481.068 234.408 478.684C231.447 476.228 229.966 472.617 229.966 467.85C229.966 461.061 232.819 456.257 238.525 453.441C244.231 450.551 250.84 449.107 258.352 449.107H265.61V440.765C265.61 437.009 265.177 434.12 264.31 432.097C263.516 430.003 262.252 428.558 260.518 427.764C258.785 426.897 256.438 426.464 253.476 426.464C250.081 426.464 247.554 427.15 245.892 428.522C244.231 429.822 243.4 431.592 243.4 433.831C243.4 435.925 244.412 437.298 246.434 437.948C246.434 439.753 245.748 441.342 244.376 442.715C243.003 444.087 241.378 444.773 239.5 444.773C237.478 444.773 235.853 444.232 234.625 443.148C233.397 441.992 232.783 440.259 232.783 437.948C232.783 433.759 234.878 430.4 239.067 427.872C243.256 425.344 248.492 424.08 254.776 424.08C269.222 424.08 276.445 430.364 276.445 442.931V473.917C276.445 475.506 276.77 476.734 277.42 477.601C278.142 478.395 279.153 478.792 280.453 478.792C281.681 478.792 282.656 478.395 283.378 477.601C284.101 476.734 284.462 475.578 284.462 474.134H286.737C286.737 476.662 285.906 478.648 284.245 480.093C282.656 481.537 280.417 482.259 277.528 482.259C274.206 482.259 271.389 481.32 269.077 479.443C266.838 477.492 265.683 474.495 265.61 470.45C263.877 474.134 261.205 477.023 257.593 479.117C254.054 481.212 250.118 482.259 245.784 482.259ZM251.743 477.492C253.693 477.492 255.679 476.915 257.702 475.759C259.796 474.603 261.566 472.942 263.01 470.775C264.455 468.536 265.322 465.864 265.61 462.758V451.49H258.352C252.429 451.49 247.987 452.827 245.026 455.499C242.136 458.099 240.692 461.783 240.692 466.55C240.692 470.522 241.631 473.339 243.509 475.001C245.387 476.662 248.131 477.492 251.743 477.492ZM289.379 479.009L296.963 477.926V428.305L289.379 427.222V425.055H307.797V435.023C310.397 431.628 313.322 428.955 316.572 427.005C319.895 425.055 323.47 424.08 327.298 424.08C331.704 424.08 335.279 425.055 338.024 427.005C340.841 428.883 342.61 431.736 343.333 435.564C345.933 432.025 348.894 429.244 352.217 427.222C355.539 425.127 359.187 424.08 363.159 424.08C368.287 424.08 372.26 425.38 375.077 427.98C377.966 430.508 379.41 434.372 379.41 439.573V477.926L386.994 479.009V481.176H362.076V479.009L368.576 477.926V439.79C368.576 435.961 367.89 433.036 366.518 431.014C365.145 428.992 362.906 427.98 359.801 427.98C356.839 427.98 353.95 428.992 351.133 431.014C348.389 433.036 345.897 435.636 343.658 438.814V477.926L350.158 479.009V481.176H326.215V479.009L332.715 477.926V439.79C332.715 435.961 332.029 433.036 330.657 431.014C329.284 428.992 327.045 427.98 323.94 427.98C320.978 427.98 318.089 428.992 315.272 431.014C312.528 433.036 310.036 435.636 307.797 438.814V477.926L314.297 479.009V481.176H289.379V479.009ZM461.592 483.343C453.72 483.343 446.677 481.429 440.466 477.601C434.254 473.773 429.415 468.428 425.948 461.566C422.481 454.632 420.748 446.723 420.748 437.839C420.748 428.955 422.481 421.083 425.948 414.221C429.415 407.287 434.254 401.906 440.466 398.078C446.677 394.25 453.72 392.336 461.592 392.336C469.465 392.336 476.507 394.25 482.719 398.078C488.931 401.906 493.77 407.287 497.237 414.221C500.704 421.083 502.437 428.955 502.437 437.839C502.437 446.723 500.704 454.632 497.237 461.566C493.77 468.428 488.931 473.773 482.719 477.601C476.507 481.429 469.465 483.343 461.592 483.343ZM461.592 480.851C466.793 480.851 471.451 479.479 475.568 476.734C479.758 473.989 483.044 470.017 485.428 464.816C487.811 459.544 489.003 453.332 489.003 446.182V429.497C489.003 422.347 487.811 416.171 485.428 410.971C483.044 405.698 479.758 401.689 475.568 398.945C471.451 396.2 466.793 394.828 461.592 394.828C456.32 394.828 451.625 396.2 447.508 398.945C443.391 401.689 440.141 405.698 437.757 410.971C435.374 416.171 434.182 422.347 434.182 429.497V446.182C434.182 453.332 435.374 459.544 437.757 464.816C440.141 470.017 443.391 473.989 447.508 476.734C451.625 479.479 456.32 480.851 461.592 480.851ZM511.246 479.009L518.83 477.926V428.305L511.246 427.222V425.055H529.664V433.397C534.214 427.186 539.342 424.08 545.048 424.08C547.793 424.08 550.213 424.802 552.307 426.247C554.402 427.619 555.449 429.605 555.449 432.206C555.449 434.084 554.835 435.673 553.607 436.973C552.379 438.201 550.754 438.814 548.732 438.814C546.421 438.814 544.543 437.912 543.098 436.106C543.893 435.095 544.29 434.011 544.29 432.856C544.29 431.628 543.857 430.653 542.99 429.93C542.195 429.136 541.112 428.739 539.74 428.739C538.223 428.739 536.67 429.461 535.081 430.906C533.492 432.278 531.686 434.445 529.664 437.406V477.926L538.331 479.009V481.176H511.246V479.009ZM559.174 479.009L566.758 477.926V428.305L559.174 427.222V425.055H577.592V433.397C582.143 427.186 587.271 424.08 592.977 424.08C595.721 424.08 598.141 424.802 600.236 426.247C602.33 427.619 603.377 429.605 603.377 432.206C603.377 434.084 602.764 435.673 601.536 436.973C600.308 438.201 598.683 438.814 596.66 438.814C594.349 438.814 592.471 437.912 591.027 436.106C591.821 435.095 592.218 434.011 592.218 432.856C592.218 431.628 591.785 430.653 590.918 429.93C590.124 429.136 589.04 428.739 587.668 428.739C586.151 428.739 584.598 429.461 583.009 430.906C581.42 432.278 579.615 434.445 577.592 437.406V477.926L586.26 479.009V481.176H559.174V479.009Z" fill="#0E336C"/>
<rect x="4.51423" y="4.51423" width="704.972" height="663.591" stroke="#0E336C" stroke-width="9.02845"/>
</g>
<defs>
<clipPath id="clip0">
<rect width="714" height="672.62" fill="white"/>
</clipPath>
</defs>
</svg>
